# xmcd
#
# Track frame offsets:
#	150
#	19139
#	40712
#	62119
#	82808
#	103622
#	125823
#	145397
#	166623
#	185041
#	202011
#	222944
#	244886
#	262881
#	283388
#	298532
#
# Disc length: 4254 seconds
#
# Revision: 1
# Processed by: cddbd v1.5.2PL0 Copyright (c) Steve Scherf et al.
# Submitted via: audiograbber 1.82.02
#
DISCID=f4109c10
DTITLE=Brenda - Brenda 2002
DYEAR=1900
DGENRE=Country
TTITLE0=Thola Amadiozi
TTITLE1=Uyang Embarasa
TTITLE2=Wewe (African Wedding)
TTITLE3=Nakupenda (I Love You)
TTITLE4=Vuli Ndiela
TTITLE5=Ngohlala Nji Nje
TTITLE6=Lekwaito
TTITLE7=Nomakanjani
TTITLE8=Msindo
TTITLE9=Vuma
TTITLE10=Umunty Ngumuntu Ngabasta
TTITLE11=Monate Kuita
TTITLE12=Ubani Ozokufa
TTITLE13=Soon And Very Soon
TTITLE14=Black President
TTITLE15=Life Is Going On
EXTD=
EXTT0=
EXTT1=
EXTT2=
EXTT3=
EXTT4=
EXTT5=
EXTT6=
EXTT7=
EXTT8=
EXTT9=
EXTT10=
EXTT11=
EXTT12=
EXTT13=
EXTT14=
EXTT15=
PLAYORDER=
